<svg width="136" height="35" viewBox="0 0 136 35" fill="none" xmlns="http://www.w3.org/2000/svg">
<path d="M29.8398 16.1745C30.0314 16.5078 30.1322 16.8855 30.1322 17.27C30.1322 17.6545 30.0314 18.0322 29.8398 18.3655L25.531 25.7989C25.3385 26.1308 25.0622 26.4063 24.7298 26.5979C24.3975 26.7894 24.0206 26.8904 23.637 26.8906L15.0656 26.8906C14.6846 26.8877 14.3109 26.7855 13.9815 26.594C13.652 26.4026 13.3782 26.1285 13.187 25.7989L8.87818 18.3655C8.68663 18.0322 8.58582 17.6545 8.58582 17.27C8.58582 16.8855 8.68663 16.5078 8.87818 16.1745L11.2583 12.0701L16.5546 21.1275C16.6418 21.2825 16.7691 21.4113 16.9232 21.5002C17.0772 21.5891 17.2524 21.6349 17.4302 21.6328L21.2877 21.6328C21.4656 21.6349 21.6408 21.5891 21.7948 21.5002C21.9489 21.4113 22.0762 21.2825 22.1634 21.1275L24.0921 17.7599C24.1795 17.6086 24.2255 17.437 24.2255 17.2623C24.2255 17.0876 24.1795 16.916 24.0921 16.7647L15.3973 1.72045C15.0956 1.19866 14.662 0.765399 14.14 0.464107C13.618 0.162814 13.0259 0.00408879 12.4232 0.00385993L11.644 0.00385996C10.9544 0.00359678 10.2769 0.184925 9.6797 0.529598C9.08244 0.874271 8.58648 1.37014 8.24169 1.96733L0.526706 15.3104C0.181668 15.9072 -7.84862e-07 16.5845 -7.54727e-07 17.2739C-7.24593e-07 17.9633 0.181668 18.6405 0.526706 19.2373L8.2417 32.5804C8.58697 33.1769 9.08314 33.672 9.68036 34.0159C10.2776 34.3599 10.9548 34.5407 11.644 34.54L27.074 34.54C27.7636 34.5403 28.441 34.3589 29.0383 34.0143C29.6355 33.6696 30.1315 33.1737 30.4763 32.5765L38.1913 19.2335C38.5363 18.6366 38.718 17.9594 38.718 17.27C38.718 16.5806 38.5363 15.9034 38.1913 15.3065L30.4763 1.96347C30.1315 1.36628 29.6355 0.87041 29.0383 0.525736C28.441 0.181063 27.7636 -0.000256798 27.074 2.63126e-06L20.5162 2.9179e-06L29.8398 16.1745Z" fill="#475BE8"/>
<path d="M56.843 27.27V19.895L50.718 9.27H54.2305L58.368 16.445L62.493 9.27H66.0055L59.893 19.895V27.27H56.843ZM69.5242 27.645C68.5492 27.645 67.7242 27.4617 67.0492 27.095C66.3742 26.72 65.8617 26.2242 65.5117 25.6075C65.1701 24.9908 64.9992 24.3117 64.9992 23.57C64.9992 22.92 65.1076 22.3367 65.3242 21.82C65.5409 21.295 65.8742 20.845 66.3242 20.47C66.7742 20.0867 67.3576 19.7742 68.0742 19.5325C68.6159 19.3575 69.2492 19.1992 69.9742 19.0575C70.7076 18.9158 71.4992 18.7867 72.3492 18.67C73.2076 18.545 74.1034 18.4117 75.0367 18.27L73.9617 18.8825C73.9701 17.9492 73.7617 17.2617 73.3367 16.82C72.9117 16.3783 72.1951 16.1575 71.1867 16.1575C70.5784 16.1575 69.9909 16.2992 69.4242 16.5825C68.8576 16.8658 68.4617 17.3533 68.2367 18.045L65.4867 17.1825C65.8201 16.0408 66.4534 15.1242 67.3867 14.4325C68.3284 13.7408 69.5951 13.395 71.1867 13.395C72.3867 13.395 73.4409 13.5908 74.3492 13.9825C75.2659 14.3742 75.9451 15.0158 76.3867 15.9075C76.6284 16.3825 76.7742 16.87 76.8242 17.37C76.8742 17.8617 76.8992 18.3992 76.8992 18.9825V27.27H74.2617V24.345L74.6992 24.82C74.0909 25.795 73.3784 26.5117 72.5617 26.97C71.7534 27.42 70.7409 27.645 69.5242 27.645ZM70.1242 25.245C70.8076 25.245 71.3909 25.1242 71.8742 24.8825C72.3576 24.6408 72.7409 24.345 73.0242 23.995C73.3159 23.645 73.5117 23.3158 73.6117 23.0075C73.7701 22.6242 73.8576 22.1867 73.8742 21.695C73.8992 21.195 73.9117 20.7908 73.9117 20.4825L74.8367 20.7575C73.9284 20.8992 73.1492 21.0242 72.4992 21.1325C71.8492 21.2408 71.2909 21.345 70.8242 21.445C70.3576 21.5367 69.9451 21.6408 69.5867 21.7575C69.2367 21.8825 68.9409 22.0283 68.6992 22.195C68.4576 22.3617 68.2701 22.5533 68.1367 22.77C68.0117 22.9867 67.9492 23.2408 67.9492 23.5325C67.9492 23.8658 68.0326 24.1617 68.1992 24.42C68.3659 24.67 68.6076 24.87 68.9242 25.02C69.2492 25.17 69.6492 25.245 70.1242 25.245ZM80.1535 27.27V13.77H82.816V17.0575L82.491 16.6325C82.6577 16.1825 82.8785 15.7742 83.1535 15.4075C83.4369 15.0325 83.7744 14.7242 84.166 14.4825C84.4994 14.2575 84.866 14.0825 85.266 13.9575C85.6744 13.8242 86.091 13.745 86.516 13.72C86.941 13.6867 87.3535 13.7033 87.7535 13.77V16.5825C87.3535 16.4658 86.891 16.4283 86.366 16.47C85.8494 16.5117 85.3827 16.6575 84.966 16.9075C84.5494 17.1325 84.2077 17.42 83.941 17.77C83.6827 18.12 83.491 18.52 83.366 18.97C83.241 19.4117 83.1785 19.8908 83.1785 20.4075V27.27H80.1535ZM90.3889 11.72V8.9575H93.4014V11.72H90.3889ZM90.3889 27.27V13.77H93.4014V27.27H90.3889ZM102.821 33.645C102.071 33.645 101.35 33.5283 100.658 33.295C99.9749 33.0617 99.3582 32.7242 98.8082 32.2825C98.2582 31.8492 97.8082 31.3242 97.4582 30.7075L100.233 29.3325C100.492 29.8242 100.854 30.1867 101.321 30.42C101.796 30.6617 102.3 30.7825 102.833 30.7825C103.458 30.7825 104.017 30.67 104.508 30.445C105 30.2283 105.379 29.9033 105.646 29.47C105.921 29.045 106.05 28.5117 106.033 27.87V24.0325H106.408V13.77H109.046V27.92C109.046 28.2617 109.029 28.5867 108.996 28.895C108.971 29.2117 108.925 29.52 108.858 29.82C108.658 30.695 108.275 31.4117 107.708 31.97C107.142 32.5367 106.437 32.9575 105.596 33.2325C104.762 33.5075 103.837 33.645 102.821 33.645ZM102.558 27.645C101.317 27.645 100.233 27.3325 99.3082 26.7075C98.3832 26.0825 97.6666 25.2325 97.1582 24.1575C96.6499 23.0825 96.3957 21.87 96.3957 20.52C96.3957 19.1533 96.6499 17.9367 97.1582 16.87C97.6749 15.795 98.4041 14.9492 99.3457 14.3325C100.287 13.7075 101.396 13.395 102.671 13.395C103.954 13.395 105.029 13.7075 105.896 14.3325C106.771 14.9492 107.433 15.795 107.883 16.87C108.333 17.945 108.558 19.1617 108.558 20.52C108.558 21.8617 108.333 23.0742 107.883 24.1575C107.433 25.2325 106.762 26.0825 105.871 26.7075C104.979 27.3325 103.875 27.645 102.558 27.645ZM103.021 24.945C103.829 24.945 104.479 24.7617 104.971 24.395C105.471 24.02 105.833 23.4992 106.058 22.8325C106.292 22.1658 106.408 21.395 106.408 20.52C106.408 19.6367 106.292 18.8658 106.058 18.2075C105.833 17.5408 105.479 17.0242 104.996 16.6575C104.512 16.2825 103.887 16.095 103.121 16.095C102.312 16.095 101.646 16.295 101.121 16.695C100.596 17.0867 100.208 17.62 99.9582 18.295C99.7082 18.9617 99.5832 19.7033 99.5832 20.52C99.5832 21.345 99.7041 22.095 99.9457 22.77C100.196 23.4367 100.575 23.9658 101.083 24.3575C101.592 24.7492 102.237 24.945 103.021 24.945ZM116.326 27.645C115.351 27.645 114.526 27.4617 113.851 27.095C113.176 26.72 112.663 26.2242 112.313 25.6075C111.972 24.9908 111.801 24.3117 111.801 23.57C111.801 22.92 111.909 22.3367 112.126 21.82C112.343 21.295 112.676 20.845 113.126 20.47C113.576 20.0867 114.159 19.7742 114.876 19.5325C115.418 19.3575 116.051 19.1992 116.776 19.0575C117.509 18.9158 118.301 18.7867 119.151 18.67C120.009 18.545 120.905 18.4117 121.838 18.27L120.763 18.8825C120.772 17.9492 120.563 17.2617 120.138 16.82C119.713 16.3783 118.997 16.1575 117.988 16.1575C117.38 16.1575 116.793 16.2992 116.226 16.5825C115.659 16.8658 115.263 17.3533 115.038 18.045L112.288 17.1825C112.622 16.0408 113.255 15.1242 114.188 14.4325C115.13 13.7408 116.397 13.395 117.988 13.395C119.188 13.395 120.243 13.5908 121.151 13.9825C122.068 14.3742 122.747 15.0158 123.188 15.9075C123.43 16.3825 123.576 16.87 123.626 17.37C123.676 17.8617 123.701 18.3992 123.701 18.9825V27.27H121.063V24.345L121.501 24.82C120.893 25.795 120.18 26.5117 119.363 26.97C118.555 27.42 117.543 27.645 116.326 27.645ZM116.926 25.245C117.609 25.245 118.193 25.1242 118.676 24.8825C119.159 24.6408 119.543 24.345 119.826 23.995C120.118 23.645 120.313 23.3158 120.413 23.0075C120.572 22.6242 120.659 22.1867 120.676 21.695C120.701 21.195 120.713 20.7908 120.713 20.4825L121.638 20.7575C120.73 20.8992 119.951 21.0242 119.301 21.1325C118.651 21.2408 118.093 21.345 117.626 21.445C117.159 21.5367 116.747 21.6408 116.388 21.7575C116.038 21.8825 115.743 22.0283 115.501 22.195C115.259 22.3617 115.072 22.5533 114.938 22.77C114.813 22.9867 114.751 23.2408 114.751 23.5325C114.751 23.8658 114.834 24.1617 115.001 24.42C115.168 24.67 115.409 24.87 115.726 25.02C116.051 25.17 116.451 25.245 116.926 25.245Z" fill="#6C5DD3"/>
</svg>
